<svg xmlns="http://www.w3.org/2000/svg" width="36" height="36" viewBox="0 0 36 36"><defs><style>.a{fill:#fff;}.b,.c{stroke:none;}.c{fill:#000c2b;}</style></defs><g class="a"><path class="b" d="M 18 34.75 C 13.52591991424561 34.75 9.319620132446289 33.0077018737793 6.155960083007813 29.84403991699219 C 2.992300033569336 26.68037986755371 1.25 22.47407913208008 1.25 18 C 1.25 13.52591991424561 2.992300033569336 9.319620132446289 6.155960083007813 6.155960083007813 C 9.319620132446289 2.992300033569336 13.52591991424561 1.25 18 1.25 C 22.47407913208008 1.25 26.68037986755371 2.992300033569336 29.84403991699219 6.155960083007813 C 33.0077018737793 9.319620132446289 34.75 13.52591991424561 34.75 18 C 34.75 22.47407913208008 33.0077018737793 26.68037986755371 29.84403991699219 29.84403991699219 C 26.68037986755371 33.0077018737793 22.47407913208008 34.75 18 34.75 Z"/><path class="c" d="M 18 2.5 C 13.85980033874512 2.5 9.967409133911133 4.112279891967773 7.039850234985352 7.039850234985352 C 4.112279891967773 9.967409133911133 2.5 13.85980033874512 2.5 18 C 2.5 22.14019966125488 4.112279891967773 26.03258895874023 7.039850234985352 28.96014976501465 C 9.967409133911133 31.88772010803223 13.85980033874512 33.5 18 33.5 C 22.14019966125488 33.5 26.03258895874023 31.88772010803223 28.96014976501465 28.96014976501465 C 31.88772010803223 26.03258895874023 33.5 22.14019966125488 33.5 18 C 33.5 13.85980033874512 31.88772010803223 9.967409133911133 28.96014976501465 7.039850234985352 C 26.03258895874023 4.112279891967773 22.14019966125488 2.5 18 2.5 M 18 0 C 27.94112014770508 0 36 8.058879852294922 36 18 C 36 27.94112014770508 27.94112014770508 36 18 36 C 8.058879852294922 36 0 27.94112014770508 0 18 C 0 8.058879852294922 8.058879852294922 0 18 0 Z"/></g></svg>