<svg xmlns="http://www.w3.org/2000/svg" xmlns:xlink="http://www.w3.org/1999/xlink" width="82.5" height="45" viewBox="0 0 82.5 45"><defs><style>.a,.b{fill:#c3cad2;}.a{stroke:#000660;stroke-width:0.5px;}.c,.e{stroke:none;}.d{fill:none;}.e{fill:#f2f7ff;}.f{filter:url(#a);}</style><filter id="a" x="37.5" y="0" width="45" height="45" filterUnits="userSpaceOnUse"><feOffset input="SourceAlpha"/><feGaussianBlur stdDeviation="1.5" result="b"/><feFlood flood-opacity="0.161"/><feComposite operator="in" in2="b"/><feComposite in="SourceGraphic"/></filter></defs><g transform="translate(0 2.5)"><g class="a"><rect class="c" width="80" height="40" rx="20"/><rect class="d" x="0.25" y="0.25" width="79.5" height="39.5" rx="19.75"/></g><g class="f" transform="matrix(1, 0, 0, 1, 0, -2.5)"><g class="b" transform="translate(42 4.5)"><path class="c" d="M 18 35.5 C 13.32557964324951 35.5 8.930950164794922 33.67967987060547 5.625629901885986 30.37437057495117 C 2.320319890975952 27.06904983520508 0.5 22.67441940307617 0.5 18 C 0.5 13.32557964324951 2.320319890975952 8.930950164794922 5.625629901885986 5.625629901885986 C 8.930950164794922 2.320319890975952 13.32557964324951 0.5 18 0.5 C 22.67441940307617 0.5 27.06904983520508 2.320319890975952 30.37437057495117 5.625629901885986 C 33.67967987060547 8.930950164794922 35.5 13.32557964324951 35.5 18 C 35.5 22.67441940307617 33.67967987060547 27.06904983520508 30.37437057495117 30.37437057495117 C 27.06904983520508 33.67967987060547 22.67441940307617 35.5 18 35.5 Z"/><path class="e" d="M 18 1 C 13.45914077758789 1 9.190059661865234 2.768310546875 5.979190826416016 5.979190826416016 C 2.768310546875 9.190059661865234 1 13.45914077758789 1 18 C 1 22.54085922241211 2.768310546875 26.80994033813477 5.979190826416016 30.02080917358398 C 9.190059661865234 33.231689453125 13.45914077758789 35 18 35 C 22.54085922241211 35 26.80994033813477 33.231689453125 30.02080917358398 30.02080917358398 C 33.231689453125 26.80994033813477 35 22.54085922241211 35 18 C 35 13.45914077758789 33.231689453125 9.190059661865234 30.02080917358398 5.979190826416016 C 26.80994033813477 2.768310546875 22.54085922241211 1 18 1 M 18 0 C 27.94112014770508 0 36 8.058879852294922 36 18 C 36 27.94112014770508 27.94112014770508 36 18 36 C 8.058879852294922 36 0 27.94112014770508 0 18 C 0 8.058879852294922 8.058879852294922 0 18 0 Z"/></g></g></g></svg>